<?xml version="1.0" encoding="utf-8"?>
<!-- Generator: Adobe Illustrator 18.0.0, SVG Export Plug-In . SVG Version: 6.00 Build 0)  -->
<!DOCTYPE svg PUBLIC "-//W3C//DTD SVG 1.1//EN" "http://www.w3.org/Graphics/SVG/1.1/DTD/svg11.dtd">
<svg version="1.1" id="Layer_1" xmlns="http://www.w3.org/2000/svg" xmlns:xlink="http://www.w3.org/1999/xlink" x="0px" y="0px"
	 width="1000px" height="155px" viewBox="0 0 1000 155" style="enable-background:new 0 0 1000 155;" xml:space="preserve">
<style type="text/css">
	.st0{fill:#0F375A;}
</style>
<g>
	<path class="st0" d="M83.4,125.3c-3.8,4.6-8.8,8.4-14.9,11.3c-6.1,3-13.1,4.4-21,4.4c-6.6,0-12.6-1.2-18.2-3.6
		c-5.6-2.4-10.4-5.8-14.5-10c-4.1-4.3-7.2-9.3-9.5-15.2C3.1,106.4,2,100.1,2,93.4s1.1-13,3.4-18.8c2.3-5.8,5.5-10.9,9.6-15.2
		c4.1-4.3,8.9-7.6,14.5-10c5.6-2.4,11.6-3.6,18-3.6c8,0,14.8,1.4,20.4,4.2c5.6,2.8,10.3,6.7,14.3,11.7l-6.7,5.1
		c-3-3.9-6.8-7.1-11.3-9.4C59.6,55.1,54.1,54,47.5,54C42.3,54,37.4,55,33,57.1c-4.4,2.1-8.2,4.9-11.4,8.5c-3.2,3.5-5.7,7.7-7.5,12.5
		c-1.8,4.8-2.7,9.9-2.7,15.3c0,5.4,0.9,10.5,2.8,15.3c1.8,4.8,4.4,9,7.6,12.5c3.2,3.5,7,6.4,11.4,8.5c4.4,2.1,9.2,3.2,14.3,3.2
		c6.6,0,12.4-1.2,17.4-3.5c5.1-2.4,9.1-5.5,12.1-9.5L83.4,125.3z"/>
	<path class="st0" d="M104.5,67.2c0-2.5,0-4.6,0-6.4c0-1.8,0-3.3,0-4.7s0-2.7-0.1-3.9c-0.1-1.2-0.2-2.6-0.3-4h8.3
		c0.1,1.4,0.2,2.8,0.3,4.1c0.1,1.3,0.1,2.7,0.2,4.2c0.1,1.5,0.1,3.2,0.1,5c0,1.8,0,4,0,6.5c1.1-2,2.5-4.2,4.2-6.6
		c1.8-2.4,4-4.7,6.8-6.8c2.8-2.1,6-3.9,9.7-5.3c3.7-1.4,7.9-2.2,12.8-2.2c2.9,0,5.4,0.5,7.5,1.4l-2.6,8.5c-0.9-0.4-2-0.7-3.3-0.8
		c-1.2-0.1-2.4-0.2-3.4-0.2c-4.7,0-9,1.1-12.8,3.2c-3.8,2.1-7.1,4.9-9.9,8.3c-2.8,3.4-4.9,7.3-6.4,11.7c-1.5,4.4-2.3,8.8-2.3,13.3
		v46.3h-8.9V67.2z"/>
	<path class="st0" d="M203.7,141.1c-6.4,0-12.5-1.3-18.1-3.7c-5.6-2.5-10.6-5.9-14.9-10.2c-4.3-4.3-7.6-9.4-10-15.2
		c-2.4-5.8-3.6-12-3.6-18.5c0-6.6,1.2-12.7,3.6-18.5c2.4-5.8,5.8-10.8,10-15.2c4.3-4.3,9.2-7.7,14.9-10.2c5.6-2.5,11.7-3.7,18.1-3.7
		c6.4,0,12.5,1.2,18.1,3.7c5.6,2.5,10.6,5.9,14.9,10.2c4.3,4.3,7.6,9.4,10,15.2c2.4,5.8,3.6,12,3.6,18.5c0,6.6-1.2,12.7-3.6,18.5
		c-2.4,5.8-5.8,10.8-10,15.2c-4.3,4.3-9.2,7.8-14.9,10.2C216.2,139.8,210.2,141.1,203.7,141.1z M203.7,133c5.3,0,10.2-1,14.8-3.2
		c4.6-2.1,8.6-4.9,11.9-8.5c3.3-3.5,6-7.7,7.9-12.5c1.9-4.8,2.9-9.9,2.9-15.5c0-5.3-1-10.3-3-15.1c-2-4.8-4.6-9-8-12.7
		c-3.3-3.7-7.3-6.6-11.9-8.7c-4.6-2.1-9.5-3.2-14.6-3.2c-5.4,0-10.3,1.1-14.9,3.2c-4.5,2.1-8.5,4.9-11.8,8.5
		c-3.3,3.5-6,7.7-7.9,12.5c-1.9,4.8-2.9,9.9-2.9,15.5c0,5.4,1,10.4,3,15.2c2,4.7,4.6,8.9,8,12.6c3.3,3.7,7.3,6.6,11.9,8.7
		C193.8,131.9,198.6,133,203.7,133z"/>
	<path class="st0" d="M259.5,48.1h9.9l25.2,79l26-79h8.5l25.4,80.4l24-80.4h9.1l-29,90.6H349l-25-77.2l-25.4,77.2H290L259.5,48.1z"
		/>
	<path class="st0" d="M474.3,138.7c-0.1-1.7-0.2-3.4-0.2-5.1c-0.1-1.4-0.2-3.1-0.2-5c0-1.9,0-3.8,0-5.6c-2,3.4-4.6,6.4-7.9,9.1
		c-2.8,2.2-6.2,4.3-10.4,6.2c-4.2,1.9-9.3,2.9-15.2,2.9c-7,0-13-1.2-18.1-3.6c-5.1-2.4-9.4-5.7-12.7-9.9c-3.3-4.2-5.8-9.2-7.5-14.9
		c-1.6-5.7-2.5-11.9-2.5-18.4c0-7.4,1.1-14,3.4-20c2.3-6,5.5-11.1,9.7-15.3c4.1-4.2,9.1-7.5,14.8-9.8c5.7-2.3,12-3.4,18.8-3.4
		c3.8,0,7.3,0.5,10.5,1.4c3.2,0.9,6.1,1.9,8.8,3c2.9,1.3,5.6,2.8,8.3,4.3V7.3h8.7v112.5c0,2.6,0,5.1,0,7.4c0,2.3,0.1,4.3,0.2,6
		c0,2.1,0.1,3.9,0.2,5.5H474.3z M473.9,64c-2-1.8-4.3-3.5-6.9-4.9c-2.2-1.3-5.1-2.5-8.7-3.5c-3.5-1-7.6-1.6-12.2-1.6
		c-4.7,0-9.3,0.8-13.7,2.3c-4.4,1.5-8.3,3.9-11.8,7.2c-3.5,3.3-6.3,7.5-8.4,12.6c-2.1,5.1-3.2,11.2-3.2,18.3c0,5.1,0.6,10,1.8,14.6
		c1.2,4.6,3.1,8.7,5.6,12.2c2.6,3.5,5.9,6.4,9.9,8.5c4.1,2.1,9.1,3.2,15,3.2c5.5,0,10.3-1,14.4-3.1c4.1-2,7.5-4.6,10.1-7.6
		c2.7-3,4.7-6.2,6-9.6c1.3-3.4,2-6.3,2-9V64z"/>
	<path class="st0" d="M618.2,116c-3.9-7.5-5.9-15.9-5.9-25c0-9.1,2-17.4,5.9-24.9c3.9-7.5,9.8-13.5,17.5-18.1
		c7.7-4.6,16.6-6.9,26.8-6.9c10.2,0,19.2,2.3,26.9,6.9c7.8,4.6,13.6,10.6,17.5,18.1c3.9,7.5,5.9,15.8,5.9,24.9c0,9.1-2,17.4-5.9,25
		c-3.9,7.5-9.8,13.6-17.5,18.2c-7.8,4.6-16.7,6.9-26.9,6.9c-10.1,0-19-2.3-26.8-6.9C627.9,129.6,622.1,123.5,618.2,116z M638.1,91
		c0,7.8,2.2,14.4,6.5,19.8c4.3,5.4,10.3,8,17.8,8c7.6,0,13.6-2.7,17.9-8c4.4-5.3,6.6-11.9,6.6-19.8c0-7.8-2.2-14.3-6.6-19.6
		c-4.4-5.3-10.3-7.9-17.9-7.9c-7.5,0-13.4,2.6-17.8,7.9C640.3,76.7,638.1,83.2,638.1,91z"/>
	<path class="st0" d="M731.5,138.7V43.6h25v12.8c3.7-4.4,8.2-8,13.7-10.9s11-4.3,16.7-4.3v24.4c-1.7-0.4-4-0.6-6.9-0.6
		c-4.2,0-8.7,1.1-13.4,3.2c-4.7,2.1-8,4.7-10.1,7.6v62.8H731.5z"/>
	<path class="st0" d="M796.4,91c0-14.6,4.8-26.5,14.3-35.8c9.5-9.3,21.6-14,36.2-14c16.7,0,29.2,5.7,37.6,17.1l-16.4,15.4
		c-4.6-6.8-11.3-10.2-20.1-10.2c-7.6,0-13.8,2.5-18.6,7.6c-4.8,5.1-7.2,11.7-7.2,19.9c0,8.3,2.4,15,7.2,20.1
		c4.8,5.1,11,7.7,18.6,7.7c8.6,0,15.3-3.5,20.1-10.4l16.4,15.3c-3.7,5-8.6,9.2-14.8,12.5c-6.2,3.3-13.8,5-22.8,5
		c-14.6,0-26.7-4.7-36.2-14.1C801.2,117.6,796.4,105.6,796.4,91z"/>
	<path class="st0" d="M894.6,91c0-9.2,2.1-17.5,6.3-25.1s10-13.6,17.6-18c7.6-4.5,16-6.7,25.4-6.7c14.2,0,25.7,4.8,34.5,14.5
		c8.8,9.7,13.1,22.2,13.1,37.8v5.9h-70.7c0.9,6.2,3.8,11.3,8.6,15.3c4.8,4,11.1,6.1,18.9,6.1c4.2,0,8.8-0.9,13.6-2.6
		c4.8-1.7,8.7-4,11.6-6.8l11.2,16.5c-4.6,4.2-10.4,7.5-17.4,9.8c-7,2.3-14.2,3.5-21.8,3.5c-14.7,0-26.8-4.6-36.4-13.8
		C899.4,118.1,894.6,106,894.6,91z M920.6,82h46.9c-0.2-2.4-0.8-4.8-1.7-7c-1-2.2-2.3-4.4-4.1-6.4c-1.8-2.1-4.2-3.7-7.3-5
		c-3.1-1.3-6.6-1.9-10.5-1.9c-3.7,0-7.1,0.6-10,1.8c-3,1.2-5.3,2.8-7.1,4.9c-1.8,2-3.2,4.2-4.2,6.4C921.5,77.1,920.8,79.4,920.6,82z
		"/>
	<g>
		<path class="st0" d="M582,87.9h-72.8V63.1H582"/>
		<path class="st0" d="M603.9,32.1h-94.3V7.3h94.3"/>
		<path class="st0" d="M547.5,139.5h-37.9v-24.9h37.9"/>
	</g>
</g>
</svg>
